<svg xmlns="http://www.w3.org/2000/svg" viewBox="0 0 91.36 123.72"><defs><style>.cls-1{fill:#3f3f3f;}</style></defs><g id="Layer_2" data-name="Layer 2"><g id="Layer_1-2" data-name="Layer 1"><path class="cls-1" d="M89.13,0H84.65a2.23,2.23,0,0,0-2.22,2.23V71.15H16.66l0,0-.1,0H1.6a1.6,1.6,0,0,0-.08,3.19,31.16,31.16,0,0,0,4.11,12,55.93,55.93,0,0,1,8,18.39,43.18,43.18,0,0,1,.8,11.18c-.07,3.55-.11,5.7,1.16,6.58s2.66.54,3.92.25a5.4,5.4,0,0,1,3.07-.12,7.6,7.6,0,0,0,4.07,0,8.84,8.84,0,0,1,5.4.3c2.49,1.06,3.7.33,4.59-.2.74-.44,1.23-.73,3,.17a5.79,5.79,0,0,0,6.3-.3c1-.57,1.56-.85,2.41-.57,1.12.36,2.73.74,3.87-.09a3.36,3.36,0,0,0,1.12-2.91,15.14,15.14,0,0,0-.22-2c-.34-2.45-.92-6.55.18-10.57,1.49-5.49,5.44-12.14,8.49-16.74A43.12,43.12,0,0,0,65.76,82l.18.17a2,2,0,0,1,.59,1.44v1.14a2,2,0,0,0,.6,1.44L75.92,95a2.63,2.63,0,0,0,1.88.78h4.63v4.76a2.23,2.23,0,0,0,2.22,2.23h4.48a2.23,2.23,0,0,0,2.23-2.23V2.23A2.23,2.23,0,0,0,89.13,0ZM3.73,74.35H5.36c1.57,6.22,5.94,18.54,10.75,23.81-.07.77-.18,1.49-.3,2.16a14.74,14.74,0,0,0-1.44-.94A58.29,58.29,0,0,0,7.46,85.15,28.72,28.72,0,0,1,3.73,74.35Zm42.79,44.5c-.67-.54-1.56-1.28-2.64-2.23.73-.63,1.49-1.28,2.25-1.91l.61-.52c.64.62,1.25,1.25,1.84,1.88C47.87,117.13,47.15,118.07,46.52,118.85Zm-17.12.71a37.6,37.6,0,0,1-3.24-2.6c.75-.63,1.58-1.28,2.47-1.92,1,.87,1.95,1.73,2.95,2.54l-.65.59Zm-8.47-.5a9.4,9.4,0,0,1-1.55-1.65c.57-.67,1.25-1.43,2-2.26.55.58,1.12,1.17,1.71,1.76C22.26,117.71,21.53,118.44,20.93,119.06Zm-4.36-1.41c0-.21,0-.41,0-.62l.23.31Zm-1.3-15.22.06,0,0,.09S15.28,102.47,15.27,102.43ZM50.61,83.87c0,1-.09,1.9-.12,2.78-.15,4.43-.25,7.11-2.86,9.47-.17.15-.36.3-.55.45-.58.46-1.15.88-1.69,1.25-.82.56-1.58,1.13-2.29,1.72-.36-.33-.7-.62-1-.89-.71-.62-1.3-1.14-1.79-1.66,1.49-1.62,2.63-2.95,3.35-3.87a73.36,73.36,0,0,0,7-12C50.67,82,50.66,82.93,50.61,83.87Zm-6.93,24.85c.91-.87,1.86-1.74,2.82-2.6.83,1,1.62,2,2.29,2.85a24.94,24.94,0,0,1-2,2.42C45.75,110.48,44.72,109.59,43.68,108.72Zm-1.59-1.29c-.8-.64-1.6-1.27-2.4-1.87,1.06-1.11,2.15-2.22,3.35-3.3.68.69,1.41,1.48,2.14,2.32C44.13,105.52,43.09,106.47,42.09,107.43Zm-4.56,3.22c-.48-.48-1-.93-1.42-1.37.75-.74,1.47-1.49,2.18-2.24.77.59,1.56,1.2,2.34,1.82-.26.26-.52.52-.77.79l-1.65,1.67Zm-8.72,1.79c-.76-.72-1.51-1.46-2.23-2.21l.23-.2c1.16-1,2.27-2,3.35-3,1,.69,1.93,1.44,2.93,2.28a26.5,26.5,0,0,1-3.42,2.56Zm-9.52-2.93c.44-.75.94-1.55,1.48-2.38.95.91,1.94,1.9,2.92,3-.8.73-1.53,1.42-2.2,2.08C20.67,111.24,19.93,110.33,19.29,109.51Zm2.64-4.06c.48-.67,1-1.35,1.53-2l.27-.37c1.54.86,3.1,1.75,4.7,2.8-.95.86-1.94,1.74-2.95,2.62l-.28.25C24.15,107.6,23,106.49,21.93,105.45Zm9.75.18,2-1.94c.93.67,1.91,1.38,2.92,2.13-.68.71-1.36,1.42-2.06,2.1C33.6,107.08,32.63,106.32,31.68,105.63Zm9.07-5.45.79.69c-1.25,1.14-2.39,2.31-3.48,3.46-1-.73-1.94-1.43-2.86-2.09,1.36-1.34,2.6-2.6,3.7-3.76C39.45,99,40.07,99.58,40.75,100.18ZM42,91.87c-.65.82-1.65,2-2.95,3.42A9.57,9.57,0,0,1,38.33,92a137.6,137.6,0,0,0-2.77-14l6,1.14a20.13,20.13,0,0,0,3.8.36H49.2A70.74,70.74,0,0,1,42,91.87Zm-5.74.27a10.58,10.58,0,0,0,1.33,4.72c-1.19,1.27-2.57,2.68-4.1,4.18l-.05,0a59.82,59.82,0,0,1-5.84-4.48A97.45,97.45,0,0,0,34,80.14,121.59,121.59,0,0,1,36.3,92.14Zm-4.25,10.34c-.67.64-1.36,1.3-2.08,2-1.73-1.15-3.41-2.12-5.07-3,.57-.89,1.16-1.9,1.76-3C27.69,99.34,29.41,100.59,32.05,102.48Zm-8.93-2.06c-1.33-.73-2.59-1.43-3.85-2.19a6.74,6.74,0,0,1-1.06-.82,30.13,30.13,0,0,0,0-3.44,101.19,101.19,0,0,1,.23-13.57c2.36,5.46,5.27,12.25,6.89,16.17C24.59,98,23.84,99.32,23.12,100.42ZM18,99.81l.26.16c1.22.74,2.44,1.41,3.71,2.11l-.06.09q-.77.94-1.44,1.89c-1-.88-1.94-1.68-2.81-2.37C17.75,101.11,17.86,100.48,18,99.81Zm1.3,5.92c-.47.7-.9,1.38-1.3,2-.4-.54-.74-1-1-1.39s-.4-.55-.53-.74a19,19,0,0,0,.64-1.79C17.74,104.4,18.48,105,19.26,105.73Zm-2.7,4.43-.06-1,.34.46Zm.26,3.92c.23-.49.7-1.45,1.38-2.67.56.7,1.18,1.45,1.85,2.22-.72.76-1.36,1.46-1.91,2.1C17.76,115.21,17.33,114.66,16.82,114.08Zm6-.38c.67-.67,1.41-1.37,2.22-2.12.65.68,1.33,1.36,2.05,2-.89.65-1.71,1.3-2.46,1.93C24,114.94,23.42,114.31,22.85,113.7Zm7.5.17c.13-.09.26-.18.4-.26a29.34,29.34,0,0,0,3.87-2.94c.49.45,1,.92,1.48,1.41l.66.67c-1.3,1.25-2.54,2.42-3.67,3.45C32.18,115.47,31.26,114.68,30.35,113.87Zm7.87.3c.94.9,1.81,1.72,2.61,2.45-1.28,1.15-2.39,2.19-3.15,2.91-.93-.59-1.93-1.28-3-2.06C35.8,116.47,37,115.36,38.22,114.17Zm1.45-1.43c.55-.55,1.1-1.11,1.65-1.69l.89-.9c1,.85,2.06,1.74,3,2.63l-.43.37c-.84.69-1.67,1.41-2.47,2.11C41.54,114.51,40.64,113.67,39.67,112.74Zm8.54.05a24.91,24.91,0,0,0,1.87-2.15l.44.58c0,.52,0,1,0,1.51-.26.53-.54,1.06-.84,1.56C49.22,113.79,48.72,113.28,48.21,112.79Zm4.1-10.08-.52-1.18,0,0,1.58-1.35C53,101,52.64,101.87,52.31,102.71Zm-1.82.91c.3.69.54,1.22.72,1.63-.07.13-.15.26-.23.39-.29.49-.61,1-1,1.58-.6-.76-1.28-1.6-2-2.45l2.15-1.86C50.28,103.15,50.39,103.39,50.49,103.62Zm-3.78-.39c-.72-.81-1.43-1.6-2.12-2.29.62-.49,1.26-1,1.94-1.44.49-.33,1-.7,1.51-1.1.39.72.83,1.63,1.27,2.58C48.45,101.71,47.58,102.46,46.71,103.23Zm5.81-16.5c0-.87.07-1.77.12-2.75a40.5,40.5,0,0,0,0-4.55h8a44,44,0,0,1-8.48,12.5A36.34,36.34,0,0,0,52.52,86.73Zm-21-9.57,1.1.21a93.53,93.53,0,0,1-6.08,16.8c-2.08-5-5.4-12.68-7.62-17.79.1-.7.22-1.37.35-2H30.46v1.52A1.31,1.31,0,0,0,31.53,77.16Zm-14.69-.5a98.37,98.37,0,0,0-.64,17.41c0,.34,0,.67,0,1C12.61,89.91,9,80.45,7.45,74.35h8.38Zm.05,44.09A20.81,20.81,0,0,1,18.08,119a9.84,9.84,0,0,0,1.42,1.47l-.48.11C18,120.85,17.31,121,16.89,120.75Zm9.38-.23c-.45.07-.87.15-1.26.19a13.81,13.81,0,0,1-2.24-.62c.53-.54,1.14-1.14,1.85-1.79.79.72,1.61,1.41,2.48,2.08Zm6.61.44a9.28,9.28,0,0,0-1.46-.49l.87-.79.91-.82c.88.67,1.76,1.3,2.6,1.87l-.29.16C34.8,121.32,34.36,121.58,32.88,121Zm7.76,0a10.92,10.92,0,0,0-1-.46c.73-.7,1.69-1.58,2.76-2.55,1.16,1,2.12,1.83,2.85,2.42l-.32.35A3.72,3.72,0,0,1,40.64,121ZM51,120.21c-.14.1-.7.17-1.91-.23a4,4,0,0,0-.71-.16c.51-.64,1-1.37,1.6-2.16.44.54.85,1.08,1.23,1.61C51.16,120,51,120.18,51,120.21Zm9-31.66c-1.26,1.91-2.67,4.15-4,6.53-1.14,1.15-3,2.72-5.09,4.53-.44-.94-.87-1.82-1.27-2.52,4.86-4.17,10.44-10.82,13.1-17.62a2,2,0,0,1,1,.55l.29.3A42.61,42.61,0,0,1,60,88.55ZM78.86,79.4c-.37,0-.91.06-1.55.08l-2.19.07-2.52,0-2.51,0-2.19-.07-1.56-.08-.58-.05.58,0c.38,0,.91-.06,1.56-.08l2.19-.07c.8,0,1.66,0,2.51,0s1.72,0,2.52,0l2.19.07c.64,0,1.18.06,1.55.08l.59,0ZM76.2,72.83l-3.84.08c-1.49,0-3.16.07-5,.08-3.65,0-7.92.12-12.49.14l-7,0H33.3l-7,0c-2.28,0-4.49,0-6.58-.06L13.78,73c-1.83,0-3.5,0-5-.08L5,72.83,1.6,72.75,5,72.67l3.84-.08c1.49,0,3.16-.07,5-.08l5.9-.08c2.09,0,4.3-.05,6.58-.06l7,0,7.27,0,7.27,0,7,0c4.57,0,8.84.1,12.49.13,1.83,0,3.5.06,5,.09l3.84.07,3.35.09Zm9.26-12.52c0,2.9,0,5.76,0,8.53s0,5.44-.07,8-.07,4.93-.1,7.14-.08,4.25-.12,6.05-.07,3.36-.1,4.65-.07,2.31-.08,3,0,1.06,0,1.06,0-.37,0-1.06-.05-1.71-.08-3-.06-2.86-.1-4.65-.09-3.83-.12-6.05-.06-4.61-.1-7.14,0-5.22-.08-8,0-5.63,0-8.53l0-8.81c0-3,0-5.9,0-8.81s0-5.76,0-8.53.06-5.44.08-8,.07-4.93.1-7.15c.07-4.42.17-8.11.22-10.7,0-1.29.06-2.3.08-3l0-1.06,0,1.06C85,6,85,7,85,8.33c0,2.59.15,6.28.22,10.7,0,2.22.06,4.61.1,7.15s0,5.21.07,8,0,5.62,0,8.53,0,5.86,0,8.81S85.47,57.4,85.46,60.31Z"/></g></g></svg>