<svg xmlns="http://www.w3.org/2000/svg" viewBox="0 0 192.06 303.46"><defs><style>.cls-1{fill:#ed6435;}.cls-2{fill:#2f3033;}</style></defs><g id="Layer_2" data-name="Layer 2"><g id="OBJECTS"><circle class="cls-1" cx="22.44" cy="172.06" r="22.44" transform="translate(-150.22 154.76) rotate(-76.85)"/><path class="cls-2" d="M179.41,190.17s13.3-33.37,12.63-42.54-1.84-14.5-3.67-26a157.31,157.31,0,0,0-4.4-17.9c3.75-3,2.82-3.35,2.82-3.35s-1.75-5.25-6.25-16.25C177.63,77,171.16,68.55,167,63.45A23.07,23.07,0,0,0,163,58.88c-11.75-10.5-17.5-12.75-17.5-12.75V44.8S151,41.63,152,37s-2.5-4.41-2.5-4.41,5.83-12.67,1.42-21.67S130-3.45,120,2.55s-7.25,24.91-7.25,24.91-1.25-1-2.09,1.25,1.09,9.25,2.09,11.09,2.16,1.83,2.16,1.83.34,3.67.09,3.75-9.34,4.25-15.5,5.92S83.12,56.55,79.37,64.05s-5.5,11-9.5,16.41S62.62,92,62.21,93.71s.83,4.17.83,4.17S49,111.46,43.21,121c-4.66,7.7-12.21,19-14.92,23a1.16,1.16,0,0,0-.52.22c-1.59,0-7.41.22-8.92.72-1.75.58-5.54,3.5-8,5a7.72,7.72,0,0,0-3.2,4.37l-1.75.88a11.89,11.89,0,0,0-4.52,5.68c-.3,1.46,4.52-1,6.7-2.48s8.17-1,12.25-.81,3.06,3.44,1.89,5.62a7.84,7.84,0,0,0-.72,6.1c.58,1.44,4.37-4.64,6.85-8.43a42.42,42.42,0,0,0,4.08-8.75S57.16,130,64.29,124.26s14.62-17.75,14.62-17.75a11.21,11.21,0,0,0,4.88-.25c2.12-.75,8.87-8.38,8.87-8.38s.75,14.88,1.75,18.38-5.3,10.87-4.46,15.12,1.34,7.5,1.34,7.5-35.75,24.75-42.5,29.5-1.5,17.5-1.5,17.5-14.63,26-15.88,31.25-3.87,13.88-4.12,20,0,19.88,0,19.88a20.54,20.54,0,0,0-5,6.25c-1.63,3.5-3.38,7.87-5.38,9.87S6.54,283.51,4.29,289s-5,12.75-.63,14.12,19.63-1.5,24.25-8.87,8.5-12.38,12.88-16.25,3.75-15,3.12-17.63a19.13,19.13,0,0,0-2.37-5.25S53.29,240.88,53.91,235s-.5-14.38-.5-14.38l7.5-5.62s6.38,3.87,9.5,1.5,11.89-5.88,11.89-5.88-10.76,9.88-11.14,11.88a5.11,5.11,0,0,0,.63,3.5s-6.88,12.12-7.13,16.5,1.5,14.87,7.25,16.37,24.63-2.75,24.63-2.75-.67,9.33,2.5,9.5,14.83-3.5,18.33-11,9.34-14.17,11.17-19.67,1-14.66,1-14.66,19.14-21,23.07-31S159,164.69,161,150.54c1.3-9.24,3.35-17,5.31-26.64,2.61,6.92,6.36,16.67,7.52,18.56,1.84,3,1.5,11.84-.33,17.17-1.63,4.75-4.26,20.65-5.16,25.26l-.55.62a88.71,88.71,0,0,0-7.94,6.46c-3.92,3.62-10.25,9.21-8.47,9.6a9.23,9.23,0,0,0,7-2c2.32-1.79,5.86-3.6,6.91,1.1S168,212.21,166.72,215s-3.2,8.9-1.57,8.28,5-4.16,5.73-6.36l.67-2.21a9.1,9.1,0,0,0,4.46-4.58c1.21-3.16,3.86-8.14,4.19-10.28.26-1.65-.44-7.19-.79-9.71Z"/></g></g></svg>