<svg xmlns="http://www.w3.org/2000/svg" viewBox="0 0 185.06 311.36"><defs><style>.cls-1{fill:#2f3033;}.cls-2{fill:#ed6435;}</style></defs><g id="Layer_2" data-name="Layer 2"><g id="OBJECTS"><path class="cls-1" d="M107.77,39.77c.81-.06,15.7-.57,19.86,2.31s8.46,12.33,8.89,12.12,11.06-10,10.25-11.55-13-20-14.14-18.89-23.69,5.6-23.69,5.6Z"/><circle class="cls-2" cx="93.38" cy="22.45" r="22.44" transform="translate(61.68 113.1) rotate(-84.25)"/><path class="cls-1" d="M181.57,59.9c-1.24-1.7-.68-2.47-.33-4.51a27.14,27.14,0,0,0-.23-6.14S180.28,38,170.87,32.86s-22.09.75-22.62.87-5-11-7.76-12.36c-4.4-2.15-24.1,2-24.1,2s-6.75-3.23-7.66-5.16S104.5,10,103.2,9.34s.61,5.59.71,7.32-2.34.29-4.83-3.16S93.71,8.61,92.77,9s3.58,6.21,4.65,7.89.44,1.76-3.17-.3S86.71,12,85.4,13.3s10.24,9.51,7.89,10-10.88-2.34-12-.79,9.32,5.73,11.85,6.32,3.18,1.6,3.83,4.36-5,5.76-6.13,8.47.8,2.45,3.44.51,11.83-4.31,18.09-5.66,11.06-1.31,15.86.7S131.71,48,131.71,48l-2.41,4a22.39,22.39,0,0,1,2.56,10.79c-.28,5.74-4.36,20.15-7.11,28.6s-.71,23.94,2,35.57,2.83,20.12-3.08,27.07,1.87,9.64,1.87,9.64-4.64,2.75-13.87,11.51-21.2,53.26-22,57.37,8.53,5.14,8.53,5.14l-1.55,4.79a101.18,101.18,0,0,0-11.11,2.61c-7.38,2.18-29.42,5.21-29.42,5.21a11.5,11.5,0,0,0-4.73-3c-2.8-.85-20.22,2-22.69,4-.64.51-.87,1.71-.88,3.32-2.7-.3-7.19-.16-9.8-.2-3.72-.07-16,2.8-17.66,7.1s3.4,37.89,5.73,44.58,9.15,7,10.89.92,5.46-22.14,8.46-25.41a7.39,7.39,0,0,1,4.15-2.16c1.29,11.08,5.22,29.37,7.44,29.11,2.84-.32,5.32-9,7.86-17.41,1.26-4.17,3-10,4.33-14.81,7.45.49,16.25,1.54,22,1.91,10.84.7,40.18,4.17,45.95,1.61,1.63-.73,3.38-3.31,5-6.66,12.94.56,27.66.59,30.43-1.9,5.11-4.6,2-19.05,1.06-20.6s5.24-4,5.24-4l1-63.94h0s9.53-.32,10.62-7.39,3.27-22.53,6.72-45.54-8.7-44.52-8.91-44.48,7.16.49,9.29-.41,2.56-3.32,2.61-6.1.56-3.1,1.47-4-.11-2.52-.11-2.52,1.28-1.15,1.16-1.35-.79-3.68-.79-3.68S184.57,67,185,65.7,182.81,61.59,181.57,59.9Z"/></g></g></svg>