<svg xmlns="http://www.w3.org/2000/svg" viewBox="0 0 242.64 257.6"><defs><style>.cls-1{fill:#2f3033;}.cls-2{fill:#ed6435;}</style></defs><g id="Layer_2" data-name="Layer 2"><g id="OBJECTS"><path class="cls-1" d="M241.77,7.9l.53-1.58a10.22,10.22,0,0,0-.7-6.16c-.71-1-2.11,3.34-2.55,5.54s-4.31,5.55-6.91,7.88-3.92-.22-4.53-2.24a6.76,6.76,0,0,0-3.24-4.13c-1.22-.51.16,5.45.95,9.23a36.17,36.17,0,0,0,2.82,7.74,14.48,14.48,0,0,1-.27,2.07s-1.1,4.46-1.46,6.1c-1.06,4.75-2.83,9.14-6.38,16.54-3.78,7.89-6.25,10.48-6.25,10.48s-4.54.18-7.72.34a3.48,3.48,0,0,0-.19-.34,51.23,51.23,0,0,1-13.09-3.87c-7.56-3.25-20.3-1.14-22.94-.52s-7-.36-7-.36a8.22,8.22,0,0,1-.35-3.25c.26-1.32.79-1.4,1.85-2.28s.08-2.11.79-2.38.26-3.69.26-3.69.7-1.05,1.58-2.19-.44-2.64-1.14-4.23,1.41-12.21-6.06-17.74-20.48-3.08-25,4.48-1.14,15.2.79,21.71-.35,12.39-1.23,12.3c-14.5-1.5-32.08,7.29-38.75,8.87s-6.86,4.57-8.44,5.8S72.56,77.65,72,77.65c0,0-26.18-12.83-28.82-14.77s-3.87-8.08-5.27-10.37-15.82-4-15.82-4-3.34,7.38,0,11.25S32,66.22,35,67.81s27.59,26,31.46,26.36S82.22,92,82.23,92L85,91.88a6.5,6.5,0,0,0,5.1,2.29c3.16-.18,10-3.52,14.23-4s5.1,1.93,7.56,5.62,3.69,10.72,3,17.58a115.64,115.64,0,0,1-4.22,20c-1.41,4.4,5.8,5.45,5.8,5.45s-7.73,3-11.6,6.68-6.85,12.83-8.61,19.33-16.35,23-16.17,27.07,7.38,7,7.38,7l-5.8,4.57A50.78,50.78,0,0,0,68,203.31c-8.26.88-30.93,2.46-30.93,2.46L35.65,204c-1.4-1.76-10.37-2.46-14.94-1.76s-4,3-6.5,10-6,9.14-11.6,17.4-.88,19.86,2.29,18.8,18.1-19,20.73-20.74,4.22-1.58,6.86-1.75,3.87-5.28,3.87-5.28a19.18,19.18,0,0,1,6-.17c4,.35,17.4.7,29,2.11s25.49-3.17,28.47-4.4,30.94-17.75,31.82-18.63,2.28,10.2,3,11.25,6.51-.35,6.51-.35l2.09,7.73s-23.89,6-24.42,6-1.23-.18-3.51-1.23-12,0-14.76.7-5.8,7.38-9.32,9.84-11.77,19.34-12,21.27,4.39,3.69,8.08,2.28,12.31-10,16.17-12.3,8.26-.88,11.25-.88A4.87,4.87,0,0,0,119,241.1s9.84-1.23,23.38-1.93,19.86.35,24.25-3.69,6.68-17.58,6.33-29.88-5.63-52.11-5.63-52.11,7.91-3,9.14-6.07-2.63-5.8-.7-14.5,3.87-27.24,3.78-33.39,2.81-14.24,6.33-17,14.76-3.34,16.43-4.13a4.21,4.21,0,0,0,1.47-1.7,54.23,54.23,0,0,0,10.59-.24,17.24,17.24,0,0,0,13-10.37c2.6-6.21,3.74-13.12,4.42-17.8s3.25-15.16,3.43-17.67c0-.08.54-3.81.51-4.44.94-1,4.34-4.61,4.95-5.82.7-1.41,1.23-5.45,1.85-7.83A6.65,6.65,0,0,0,241.77,7.9Z"/><circle class="cls-2" cx="26.16" cy="39.5" r="22.44" transform="translate(-18.79 24.52) rotate(-38.05)"/></g></g></svg>