<svg xmlns="http://www.w3.org/2000/svg" viewBox="0 0 204.67 333.51"><defs><style>.cls-1{fill:#ff6d00;}</style></defs><g id="Layer_2" data-name="Layer 2"><g id="Objects"><path d="M198.82,97.13c-3.3-17.87-9.86-21.26-12.21-26.54S181.16,68,173.2,59.79s-12.26-6.61-12.26-6.61l-.1-.84c-5.58,1.1-24.53-4.46-27.89-5.05s-6.42-4.07-6.42-4.07c1.45-2.18.88-9.47.88-9.47,3.91.39,4.93-6.27,4.67-9.87s-1.41-2.2-1.41-2.2,1.72-6.95-1.27-10.44S124,0,113.47,0,99.06,7.42,99.06,7.42C92.81,9.79,96,21.6,96,21.6c-3.9.37-1.26,9.15-.79,11.35s3.39,2.27,3.39,2.27c.15,8.32,2.56,11.07,2.56,11.07C90,49.92,71.76,67.85,71.76,67.85c-7.62,3.06-10.25,19.08-8.67,25s-2.2,13.69-3.92,18.33S58,125.06,58,125.06c-9.31,10.4-11.47,30.23-11.59,35.1s.88,12-1.51,17S42.53,183,42.53,183s-.88,7.46-3.66,9.3-3.17,6.2-5.2,8.06-1.56,6.51-1.56,6.51c-1.28,3.58-7.55,9.26-3.91,10.1,3.44.8,5.26-3,5.45-3.4-1.11,3.72,1.74,2.64,1.74,2.64,4-2.31,5.71-12.9,5.71-12.9,1.16-.14,5.81-5.95,5.81-5.95C48.37,198,52,197,52,197c.75,3.45,6.82,5,6.82,5s3.7,7.58,3.28,11.17a5.32,5.32,0,0,0,2.24,5.18s1.79-1.07-2.59,3.42-5,16.56-7.27,20.48-30.66,47.41-30.72,50.42-.51,2.84-5.06,6-6.39,9.13-6.39,9.13-.73-2.48-9.49,4.79S7.89,326,14.49,331s6.32.94,6.32.94c3.32.89,14.45-20.38,14.28-23.57s12.3-16.92,27.28-31.15S76,241.52,80.28,234.16A22,22,0,0,1,91,224.58c-.12,3.73,1.66,6.65,3.2,7s3.86-2.54,4.28-3l.09.21c1,2.24,5.56,1.11,6.57,2.35s.93,2.63.52,6.33-4.71,11,7.05,11.38,12.55-11.94,13.43-16.48-.75-2.61,7.18-11.43-1.23-16-3.79-17.11-2.71,1.19-2.71,1.19c-7.4.19-7.85,4.81-7.85,4.81-2.11.25-2.39,1.43-2.39,1.43-4.31-2.62-7.79-.63-7.8-1.91s6.51-11.71,9-12.44,1.5-3.5,5-5.54,6.58-.37,5.79-2.52.12-2.58.12-2.58c7.26-3.29,4.24-8.39,3.87-9l.38-.1c1.13-.36.75-2.66.75-2.66,4-4.14,6.54-15.54,4.78-15.9s-2.33-.43-.77-2.84-3.53-6.77-.12-11.62,5.13-13,5.13-13c3.65-4,3-11.65,5.62-17.24a15.9,15.9,0,0,0,1.16-10.42s5.14-5.91,7-8.56,2.51-10.39,2.51-10.39,1.82-4.94,5.64-1.68,10.58,3.76,10.58,3.76c.56,5.79,6.78,9.78,13,21.06S194.42,126,194.42,126l-.28,0c-.61.12-.83.52-2.45,2.41-2.13,2.48-6.76,1.39-5.25,3.85s2.08,7.11,2.08,7.11c-2.76,4.32,2.26,8.57,3.88,9.59s11.33-7.23,11.48-9.53,1.16-5.71.64-12.93S202.13,115,198.82,97.13ZM62,179.07a2.51,2.51,0,0,0,.1,3.42s-4.79,3.8-4,6.59-.75,2.66.18,5,.33,3.61.33,3.61a3.76,3.76,0,0,1-3.16-4c0-3.64-1.62-4.52-2.75-8.55S61.1,172.69,62,167.77C61.89,168.38,61,177.54,62,179.07Z"/><path class="cls-1" d="M62,266.9c1.72,14.16-8.13,27-22,28.69S13.45,287.15,11.74,273s8.14-27,22-28.7S60.26,252.73,62,266.9Z"/></g></g></svg>