<svg xmlns="http://www.w3.org/2000/svg" viewBox="0 0 278.46 270.92"><defs><style>.cls-1{fill:#ed6435;}.cls-2{fill:#2f3033;}</style></defs><g id="Layer_2" data-name="Layer 2"><g id="OBJECTS"><circle class="cls-1" cx="256.02" cy="80.8" r="22.44" transform="translate(118.03 311.08) rotate(-76.59)"/><path class="cls-2" d="M272.64,64.12C269.05,61.28,266.86,58,261,54.5s-9.84-4.16-16-7.88-23.62-15.09-31.05-15.3-12.25-3.07-19.25-2.63-16.18-1.6-16.18-1.6,1.53-5.69.44-6.64l-1.09-.94s2.47-10.14-4.45-16S153.07-.47,149.35,6.82s0,15,0,15-2.4-.88-2.62,1.24a13.85,13.85,0,0,0,.8,5.9A4.39,4.39,0,0,0,150,31.17s-13.56,4.59-16.48,6.49-18,14.5-23.61,18.73S97.45,63.1,95.77,65.65a8.44,8.44,0,0,0-1.31,5.25s-8.53,7.29-12.9,9.4S60.49,97.58,56,102.83c-2.78,3.23-5.26,6-6.75,7.59-1.59,0-7.41.21-8.92.72-1.75.58-5.54,3.5-8,5a7.77,7.77,0,0,0-3.21,4.38l-1.74.87A12,12,0,0,0,22.81,127c-.3,1.46,4.52-1,6.7-2.48s8.17-1,12.25-.81,3.06,3.43,1.89,5.62a7.84,7.84,0,0,0-.72,6.1c.58,1.44,4.37-4.64,6.85-8.43a42.42,42.42,0,0,0,4.08-8.75l26.9-16c6.7-4,9.69-8.16,15.38-10.93a42.92,42.92,0,0,0,9.33-6.12s.87.94,3.06.21a42.15,42.15,0,0,0,5.76-2.77s1.46,4.67-6.41,13.2-15.75,9.62-15.09,13.34a18.15,18.15,0,0,0,2.4,6.34s-19.24,24.71-24,31.05-7.22,14-5,14.88a3.58,3.58,0,0,1,2.4,2.62s-12.46,14-17.27,22.31-11.6,22.3-15.09,28.42-8.1,9.63-13.56,14.66S.72,245.41.06,247.82,4,255,10.56,253.72s24-8.09,29.3-10.71,6.56-4.16,6.56-7.22,3.94-16.18,7.22-18.81S69.17,199.27,76,189.65s11.81-17.72,11.81-17.72,14.65,2.63,19.9-3.5,23-31.49,23.61-30,16,22.63,20.78,26.9c11.81,10.5,19.27,4.61,19.27,4.61s5.22,5.23,6.1,7.86-1.4,15.3,1.92,23,12.51,28,14.48,34.11,4.15,10.28,3.94,11.38-.66,13.77.65,15.52,5.25,3.5,7.44,3.94,6.12,3.72,12.9,4.59,13.34,1.09,14.21-1.75.44-9.4-4.15-12-7.65-2.4-10.28-6.34-5.68-8.31-5.68-8.31-9.41-64.95-10.94-71.73S194,156,194,156s4.59-4.16,1.09-7.44-30.61-33-29.52-33.68,5.47-1.31,4.81-10.93.44-14.43,5.25-21.87,9.62-15.31,11.59-21.65.65-10.28,7.65-11.81,11.81-3.06,11.81-3.06,12.69,4.81,18.59,6.34,17.28,3.28,21.21,5.91,8.75,10.93,11.37,11.37,4.38,0,2.85-2.63a17.86,17.86,0,0,1-2-4.59s7.44,2,10.06,3.94,7.65,8.75,7.87,6.56S276.23,67,272.64,64.12Z"/></g></g></svg>