<svg xmlns="http://www.w3.org/2000/svg" viewBox="0 0 166.55 312.74"><defs><style>.cls-1{fill:#ed6435;}.cls-2{fill:#2f3033;}</style></defs><g id="Layer_2" data-name="Layer 2"><g id="Objects"><path class="cls-1" d="M166.55,108.5a23.19,23.19,0,1,1-23.19-23A23.09,23.09,0,0,1,166.55,108.5Z"/><path class="cls-2" d="M126.86,85.45s-6.75,14.45-11.07,17.42c0,0-6.21,10.93-8.91,11.07,0,0,2.43,7.56,4.46,7.42,0,0,8.5-3.91,9.18-5.94a29.09,29.09,0,0,1,2.63-4.66s2-8.64,1.82-10.8c0,0,.14-.67,1.35-1.21s.27-4.12,2.5-4.52,1.75,4.52.94,6.41,2,8.3,6.82,9.72,8-3.65,8.91-4,9.11-7.09,10.67-4.39-10.53,9.32-11.28,11.07,1.37,2.28,4,1.37a24.84,24.84,0,0,1,6-.91c1.11-.21,4.4-3.34,6.68-2.64s-1.32,4-1.32,4-5.62,3.19-7.34,3.34-9.21,1.27-6.43,2.23,10.58,1.81,12.61,1c0,0,1.59.17,1,2s-1.59,2.33-4.22,2.09-10.87.24-12.15-.37c0,0,3.14,2.91,3.74,3.31s4.71-.2,4.66,1.52-5,2-6.93,1.32l-1.93-.66a5.61,5.61,0,0,0-2.78-1.12l-1.42-.05a20.32,20.32,0,0,0-6.07.81c-2.69.91-7.34.05-7.34.05s-3.09,1-4.41,1.3c0,0,5.37,5.54,5.87,7.16l2.53,6.78s12.26,11.44,13.07,12.35a7.16,7.16,0,0,1,1.51,3c.21.91,2.94,6.58.71,12.46s-1.11,8.5-2.53,10.42c0,0-.5,22.92-4,29.27s-3.75,24.3-3.75,24.3a2.8,2.8,0,0,1,0,1.95l-.12.21-.32.54s2.23-.48,1.76,1.89-.21,5.4-.75,7.62,9.83,7.63,12,11,17.62.61,17.21,12.35c0,0,0,6.38-15.59,5.78s-16.54-4.26-22.48-3.31-17-.88-16.87-4.93,2.43-8.84,2.09-11.74.61-2.64-1-8,1.69-6.14,5.8-6.14c0,0,2.37-20.72.34-26.53s-6.21-17,1-41.85c0,0-4.59-5.67-7.43-7,0,0-29,11.07-33.61,10.8S67,164,64,162a20.73,20.73,0,0,0-3.65,5.36c-1.52,3.24.61,5.37-1.32,5.57,0,0-2.22,14-7.08,20.39s-7.7,10.66-7.43,15.25-3.24,18.36-8.77,26.19-10.67,22.68-10.26,31.73c0,0,1.13,5.46,0,7.69s1.27,11.95,3.6,16.91,7.29,7,6.58,17.82c0,0-17,7.66-24.6,1.32s-4.32-7.83-6.75-8.65-5.5-5.12-3.78-8-.2-5.87.1-7.69.71-20.15,4.05-18.33c0,0,.71-2.73,2.33-2.73s3.44-26.53,6.28-32-.41-23.29,9.11-35.64,7.09-15.79,6.08-21.67c0,0-3.38-3.44-3-10.46S22.1,155,22.24,148.23s-4.32-12.69-4.19-18.77-1.89-8.64-.81-13.63c0,0-3.24-3.65-1.35-6.48s1.62-2.84,3-6.62,3.11-7,6.62-8.77,2.43-7.29,15.66-10.67a10.74,10.74,0,0,0,5.4-7.42c1.08-5.4,25-25.25,38.2-29.5,0,0,12.56-10.73,15-10.53,0,0,6.27-6.08,12.55-7.49,0,0,.2-1.62,3.24-1.42,0,0-3.75-24.3,15.19-26.73s23.08,18.12,19.94,24.7c0,0-.35,2.89.31,2.89,0,0,1.87-.66,2,1.77s-.15,8-2.83,9.62c0,0-.63,9.49-2.25,11s-7.56,9.86-7.56,10.67-2.36,2.9-3.1,2.09c0,0-1.82,7.69-3.85,9.81s-.5,2.33-.05,2.89,2,3.85,4.1,4.46,5.82,1.36,7.34,2.17,2.79-.61,4.3.86,7.4,2.55,8.41,3.7,3.81,4.32,4.79,5.16,1.49,2.94-1,2.47c0,0-3.75-5.3-6.89-5.91s-6-1.59-6.17-2.3c0,0-9.55-.1-10.4-.7,0,0-1.28,3.88-3.37,3.94,0,0-1.79.51-2-.54a10.23,10.23,0,0,0-2.26,1.25,4.94,4.94,0,0,1-1.76-3.88C128.41,83.76,126.86,85.45,126.86,85.45Z"/></g></g></svg>