<svg xmlns="http://www.w3.org/2000/svg" viewBox="0 0 196.71 291.96"><defs><style>.cls-1{fill:#ed6435;}</style></defs><g id="Layer_2" data-name="Layer 2"><g id="Objects"><path d="M181.71,284.8c-10.75-.72-16.12-2.46-17.86-8.2s-14.21-2.73-20-3.46-4.74-6.47-4.74-6.47c-1.9-7.38,3.16-19.29,6.44-20.74s4.32-9.79,4.32-9.79c-2.55-29.7-2-37.54-.18-40.64a38.69,38.69,0,0,0,3.09-7.82c-.11.13-1,1-5.1-2.2C143.26,182,135.87,181.93,133,182s-8.32,12-13.61,13.94-13.76-4.46-21.32-10.84-9.17-2.49-9.17-2.49c-12.64,17.74-17.75,17.26-22.4,21.14S47.21,229.52,39.43,233.9s-6.31,10.57-6.31,10.57c2.67,2.3-1.22,16-.85,22.84s2.18,15.18,2.42,17.37,1.35,10-13.12,6.32S5.29,279.83,6.15,269.13,3.47,258.68.68,251.39s3.88-8.5,5-11.91,7.41-5.22,9.6-5.22,6.8-7,10.21-12.51,14.09-24.61,14.63-25.21-.38-2.07-.57-2.38c.57,1.1-1.27,2.6-2.89,1.28S31,192.59,32,189s-.92-11.79.54-13.61,1.88-21.82,1-38.58,4.92-22.73,4.92-22.73,6.44-9,7.42-15.54,6.8-10,8.5-23.21,10.93-16,16.65-23,18-7.05,18-7.05c1.34.24,6.19-2.68,6.19-2.68-.73-1.21-.24-9.29-.24-9.29-2.37-.73-1.7-8.32-2.19-10.87S94,20.18,94,20.18C94.72,2.32,107,.25,116.59,0s14.22,8,14.22,8c3.88,5.11,1.57,15.44.72,21.76a7.59,7.59,0,0,1-6.32,6.92,42.42,42.42,0,0,1-1.45,5.95s12-3.15,17.86,10-1.7,21.74,2.42,26.24,2.32,15.68,4.63,17.13l.36.24c2.36,1.5,6.07,4,6.07,4,1.46,2.8,7.78.49,10.81-.84s3.65.48,6.2,1.21,5.72,4.5,7.42,7,8.5,4.61,8.62,7S186,116,186,116l.37.73c.36.73,1.34,2.55-1.94,2.43a3.43,3.43,0,0,1-.56-.08c-3-.7-5.5-5.88-5.16-4.05s-.84,3-3.4,2.67c-1.92-.28-2-4.57-1.89-6.66a1,1,0,0,0,.07-1.11s0,.44-.07,1.11c-.31.46-1.06,1-2.73,1.32-3.88.85-1.94-3-4-4.26s-8-2.67-9.59.25-5.72,1.58-5.72,1.58c-5.22,1.21-8.5,6.19-8.5,6.19l-.46-.08c-11.21-2.21-7.1-6.37-11.32-8.06-3-1.22-2.07-11.3-2.07-11.3-1.09,3.65-6.19,6.93-6.19,6.93-2.68,4.61-11.06,16.4-14.34,21.63s2.42,1.46,5.46,3,3.53,6.56,3.53,6.56c3.89.49,6.08-3.64,9,.85,1.67,2.58,8.77,6,14.69,8.81a24.84,24.84,0,0,0,14.35,10.84c7.46,5.11,17.07,12.25,21.26,14.74,5.71,3.4,2.8,20.89,0,23.2s-2.49,7.29-2.49,7.29c-1.09,9.12-4.92,30.08-7.29,34.09s-.46,11.39-.46,11.39c3.11-.46,4.1,2.55,6.56,7.74s6.93,10.12,10.48,11.12,12.48,4.92,13.13,11.66S192.46,285.53,181.71,284.8Z"/><path d="M148.54,150.91c1.78,1,4.22,2.6,6.93,4.46a24.84,24.84,0,0,1-14.35-10.84c4.4,2.07,8.15,3.76,8.52,4.44C150.49,150.54,148.54,150.91,148.54,150.91Z"/><path d="M173.38,111.08c0-.67.07-1.11.07-1.11A1,1,0,0,1,173.38,111.08Z"/><path class="cls-1" d="M173.38,111.08c0-.67.07-1.11.07-1.11A1,1,0,0,1,173.38,111.08Z"/><path class="cls-1" d="M186.91,131.23a24.79,24.79,0,1,1-49.57,0,25.2,25.2,0,0,1,5-15.15l.46.08s3.28-5,8.5-6.19c0,0,4.14,1.33,5.72-1.58s7.53-1.46,9.59-.25.13,5.11,4,4.26c1.67-.37,2.42-.86,2.73-1.32-.09,2.09,0,6.38,1.89,6.66,2.56.36,3.77-.73,3.4-2.67s2.12,3.35,5.16,4.05A25.21,25.21,0,0,1,186.91,131.23Z"/></g></g></svg>