<svg xmlns="http://www.w3.org/2000/svg" viewBox="0 0 291.77 277.69"><defs><style>.cls-1{fill:#ed6435;}</style></defs><g id="Layer_2" data-name="Layer 2"><g id="Objects"><path class="cls-1" d="M60,114a28.13,28.13,0,1,1-28.13-27.9A28,28,0,0,1,60,114Z"/><path d="M137.51,28.25s-3.15-16,3.6-19.12S145.39-3,169.69,1c0,0,15.07,7,9.67,24.52,0,0,2.34,1.47,1.17,5.29s-1.84,12.38-5.11,12.6l-1,3.38a8.93,8.93,0,0,1,2.81.78s5.07-1.12,9,1.47,13.5,2.7,15.87,9.11S214.91,67,213.11,91s4.5,13.5,7,21.6-.68,7.87,2.7,13.05,23.85,40.27,28.35,51.75a30.31,30.31,0,0,1,0,4c-.15,1.95,6.3,4.21,11.7,14.4s2.92,20.33,10.57,31.58c0,0,5.18,6.07,5.78,13.57,0,0,5.25,5.25,6.45,10.5,0,0,5.32,1.35,5.66,10.8,0,0,2.25,5.74-3,5.74s-16,2.14-16.09-1.35-11.36-8.32-11.36-15.41-2.25-13.84-.45-16.65c0,0-1.8-5.18-4.61-8.21s-4.91-8.07-10-10.77-9.6-14.4-12.3-25.2a35.5,35.5,0,0,0-10.95,2.4c-4.65,2.1-20.55-.45-27.3,5.55,0,0-3.75-4.35-3.75-7.65a39.77,39.77,0,0,0-2.25,4.8l-1.2,3s-6.3,11.1-7.8,13.95-8.4,7.8-11.7,12c0,0-2.12-.11-.6-2.08,0,0-3.43,2.65-1.69-2.25s5.66-7.44,7.31-10.14,2-7.88-1.2-6.6-2.55,5-7.12,5.32c0,0-1.5-.15,1.8-5s4.8-11.48,12-14.63c0,0,5.4-10.05,3.3-17.4s-3.75-18.3-6.45-17.85-3.75-3-8.7,11.1-11.85,34.21-14.55,34.8c0,0-12.3-4.65-16.65-6.45l-4.35-1.8s-8.85.75-11.25.75-3,7.2-4.5,12.15-13.8,14.1-17.55,22.5-4.8,6.75-5,16.8-3,4.65-2.55,13.8S89,278.23,75.19,277.67,58.2,262,65.29,256s7.08-14.51,10.12-18.45,5.06-6.63,5.06-8.77,4.92-11,5.67-17.48,5.1-24.75,14-30.3c0,0-2.1-.75,2.55-5.7s7.2-10.65,7.35-13.35,2.7-3.3,3.6-11,8.25-16.2,10.65-24.75,4.65-3.9,2.1-11.55.3-17.25-.75-24.3a10,10,0,0,1-4-6c-.75-3.91-4.65-2.56-8-1.06S94.24,87.8,87.49,91s-19.17,3.68-24.68,3.57-6.52-1.47-12.26-1.69c0,0-8.21-6.75-16.76-6.3,0,0-.34,1.69-4.17,1.12s-1.91-1.46-3.26-.67-5.62,4.27-8.77,3.71S6.9,103.18,5.32,106.55s-4.05,5.18-5.06,3.38,1.24-5.51,1.24-5.51.79-8,4.27-11.59S13.65,83.6,20,81.24s17.44-2.36,19.69-2.81,26.55-8.63,38-8a36,36,0,0,0,20.1-5.25s8-12.9,16.65-13.35,17.55-4.95,26.7-2.25c0,0-2.85-8.85-2.55-13.8C138.49,35.75,133.84,27.2,137.51,28.25Z"/></g></g></svg>