<svg xmlns="http://www.w3.org/2000/svg" viewBox="0 0 146.82 84.78"><defs><style>.cls-1{fill:#3f3f3f;}</style></defs><g id="Layer_2" data-name="Layer 2"><g id="Layer_1-2" data-name="Layer 1"><path class="cls-1" d="M16.5,12.72a.41.41,0,0,0,.31-.1.51.51,0,0,0,.11-.35V10.4a.47.47,0,0,0-.11-.35.38.38,0,0,0-.31-.11.4.4,0,0,0-.32.11.47.47,0,0,0-.1.35v1.87a.5.5,0,0,0,.1.35A.44.44,0,0,0,16.5,12.72Z"/><path class="cls-1" d="M113.56,37.35h26.57V20.6H113.56Z"/><path class="cls-1" d="M40.85,28.26H106V7.64H40.85Z"/><path class="cls-1" d="M6.82,37.35H33.39V20.6H6.82Z"/><path class="cls-1" d="M18.89,60.18a.29.29,0,0,0,.22-.08.33.33,0,0,0,.08-.24V58.53a.37.37,0,0,0-.08-.25.29.29,0,0,0-.22-.07.32.32,0,0,0-.23.07.37.37,0,0,0-.07.25v1.33a.33.33,0,0,0,.07.24A.32.32,0,0,0,18.89,60.18Z"/><path class="cls-1" d="M30.79,64.22h-17V77.14h17Zm-8,2.43a.66.66,0,1,1,0-1.31.66.66,0,1,1,0,1.31Zm1.56,0A.66.66,0,1,1,25,66,.66.66,0,0,1,24.36,66.65Zm1.57,0a.66.66,0,1,1,0-1.31.66.66,0,1,1,0,1.31Zm1.56,0a.66.66,0,1,1,.66-.65A.66.66,0,0,1,27.49,66.65Zm1.57,9.4a.66.66,0,1,1,.66-.66A.67.67,0,0,1,29.06,76.05Zm0-1.57a.66.66,0,1,1,.66-.66A.66.66,0,0,1,29.06,74.48Zm0-1.56a.66.66,0,1,1,.66-.66A.67.67,0,0,1,29.06,72.92Zm0-1.57a.66.66,0,1,1,.66-.66A.66.66,0,0,1,29.06,71.35Zm0-1.56a.66.66,0,1,1,.66-.66A.67.67,0,0,1,29.06,69.79Zm0-1.57a.66.66,0,1,1,.66-.66A.66.66,0,0,1,29.06,68.22Zm0-1.57a.66.66,0,1,1,.66-.65A.66.66,0,0,1,29.06,66.65Z"/><path class="cls-1" d="M14.24,46.88a.34.34,0,0,0,.06-.22V46.5a.29.29,0,0,0-.06-.21.24.24,0,0,0-.19-.07h-.24v.72h.24A.27.27,0,0,0,14.24,46.88Z"/><path class="cls-1" d="M65.51,58.21h-.15v.72h.15a.25.25,0,0,0,.18-.07.25.25,0,0,0,.07-.21v-.16a.34.34,0,0,0-.06-.22A.29.29,0,0,0,65.51,58.21Z"/><path class="cls-1" d="M143.09,53.5V4.24a.67.67,0,0,0-.66-.67H4.4a.67.67,0,0,0-.67.67V53.5ZM8.7,48.91A1.88,1.88,0,1,1,10.58,47,1.88,1.88,0,0,1,8.7,48.91Zm6.82-.47a.9.9,0,0,1-.27.28,1.28,1.28,0,0,1-.4.15,2.42,2.42,0,0,1-.47,0H12.32v-.72h.26v-2h-.26V45.5h2.06a1.5,1.5,0,0,1,.85.22.76.76,0,0,1,.31.65.8.8,0,0,1-.08.36.78.78,0,0,1-.19.24.79.79,0,0,1-.24.15.9.9,0,0,1-.22.07v0l.24.05a.85.85,0,0,1,.26.11.73.73,0,0,1,.22.24.76.76,0,0,1,.09.4A.76.76,0,0,1,15.52,48.44ZM19,48a1.35,1.35,0,0,1-.34.54,1.33,1.33,0,0,1-.53.31,2.4,2.4,0,0,1-.69.09,2.5,2.5,0,0,1-.69-.09,1.4,1.4,0,0,1-.53-.31A1.45,1.45,0,0,1,15.9,48a2.86,2.86,0,0,1,0-1.64,1.45,1.45,0,0,1,.33-.54,1.28,1.28,0,0,1,.53-.31,2.5,2.5,0,0,1,.69-.1,2.39,2.39,0,0,1,.69.1,1.22,1.22,0,0,1,.53.31,1.35,1.35,0,0,1,.34.54A2.86,2.86,0,0,1,19,48Zm4.28-1.81H23v2.69H21.79l-1.28-2v1.25h.26v.72H19.24v-.72h.26v-2h-.26V45.5h1.62L22,47.27V46.22h-.27V45.5h1.54Zm3.49,0h-.26v1.47a1.71,1.71,0,0,1-.1.6,1,1,0,0,1-.29.39,1.09,1.09,0,0,1-.44.23,2.58,2.58,0,0,1-.58.06,2.61,2.61,0,0,1-.59-.06,1.17,1.17,0,0,1-.46-.23.93.93,0,0,1-.28-.39,1.5,1.5,0,0,1-.11-.6V46.22h-.26V45.5h1.66v.72H24.9v1.69a.34.34,0,0,0,.06.22.29.29,0,0,0,.19.06.25.25,0,0,0,.19-.06.29.29,0,0,0,.07-.22V46.22h-.18V45.5h1.55Zm2.6,2.48A1.79,1.79,0,0,1,28.3,49a3.87,3.87,0,0,1-.77-.07,2.82,2.82,0,0,1-.6-.16v-.87h1a.26.26,0,0,0,.05.19s.11.07.22.07a.34.34,0,0,0,.2-.05.14.14,0,0,0,.06-.13.11.11,0,0,0-.05-.1.67.67,0,0,0-.2-.11c-.22-.08-.4-.16-.57-.24a1.7,1.7,0,0,1-.4-.24.82.82,0,0,1-.24-.32,1.15,1.15,0,0,1-.08-.44,1.23,1.23,0,0,1,.08-.44.73.73,0,0,1,.25-.33,1,1,0,0,1,.46-.21,2.84,2.84,0,0,1,.71-.08,3.38,3.38,0,0,1,.72.08,2.27,2.27,0,0,1,.56.2v.79h-.92a.22.22,0,0,0-.07-.18.34.34,0,0,0-.18,0,.35.35,0,0,0-.2,0,.11.11,0,0,0-.07.12.12.12,0,0,0,.07.11l.2.08.48.18a1.4,1.4,0,0,1,.4.23,1.18,1.18,0,0,1,.27.32,1.17,1.17,0,0,1-.27,1.33Zm14-12.44a.72.72,0,0,1-.23.31.77.77,0,0,1-.36.18,1.88,1.88,0,0,1-.49.06h-.48v.63h.43v.72H40.29v-.72h.26v-2h-.26v-.72h2a2.46,2.46,0,0,1,.49,0,1,1,0,0,1,.36.18.75.75,0,0,1,.23.32,1.48,1.48,0,0,1,0,1Zm.55,1.55a1.35,1.35,0,0,1-.34-.54,2.45,2.45,0,0,1-.12-.82,2.39,2.39,0,0,1,.12-.81,1.32,1.32,0,0,1,.34-.55,1.36,1.36,0,0,1,.52-.31,2.73,2.73,0,0,1,1.39,0,1.48,1.48,0,0,1,.53.31,1.42,1.42,0,0,1,.33.55,2.39,2.39,0,0,1,.12.81,2.45,2.45,0,0,1-.12.82,1.45,1.45,0,0,1-.33.54,1.35,1.35,0,0,1-.53.31,2.47,2.47,0,0,1-1.39,0A1.25,1.25,0,0,1,43.88,37.81Zm2.43,5.71a1.88,1.88,0,1,1,1.88-1.88A1.88,1.88,0,0,1,46.31,43.52Zm3.1-5.58a1.77,1.77,0,0,1-1.07.28,4.92,4.92,0,0,1-.78-.07A3.33,3.33,0,0,1,47,38v-.87h1a.34.34,0,0,0,0,.2.3.3,0,0,0,.22.06.37.37,0,0,0,.21,0,.16.16,0,0,0,0-.24.76.76,0,0,0-.21-.11l-.56-.23a2.22,2.22,0,0,1-.41-.25.9.9,0,0,1-.23-.32,1,1,0,0,1-.08-.44A1.23,1.23,0,0,1,47,35.3a.81.81,0,0,1,.25-.33,1.31,1.31,0,0,1,.46-.21,2.88,2.88,0,0,1,.71-.07,3.38,3.38,0,0,1,.72.07,1.93,1.93,0,0,1,.56.21v.78h-.92a.18.18,0,0,0-.07-.17.31.31,0,0,0-.17,0,.37.37,0,0,0-.21,0,.14.14,0,0,0-.06.13.12.12,0,0,0,.07.11l.2.08c.17,0,.33.11.48.17a1.49,1.49,0,0,1,.39.23.86.86,0,0,1,.27.33,1,1,0,0,1,.1.47A1,1,0,0,1,49.41,37.94Zm3,0a1.81,1.81,0,0,1-1.08.28,4.79,4.79,0,0,1-.77-.07A3.48,3.48,0,0,1,50,38v-.87h1a.28.28,0,0,0,.06.2.29.29,0,0,0,.22.06.35.35,0,0,0,.2,0,.16.16,0,0,0,.06-.13.13.13,0,0,0,0-.11.67.67,0,0,0-.2-.11l-.57-.23a2.12,2.12,0,0,1-.4-.25.82.82,0,0,1-.24-.32,1.15,1.15,0,0,1-.08-.44A1.23,1.23,0,0,1,50,35.3a.73.73,0,0,1,.25-.33,1.23,1.23,0,0,1,.46-.21,2.88,2.88,0,0,1,.71-.07,3.23,3.23,0,0,1,.71.07,1.73,1.73,0,0,1,.56.21v.78h-.92a.18.18,0,0,0-.07-.17.29.29,0,0,0-.17,0,.35.35,0,0,0-.2,0,.13.13,0,0,0-.07.13.12.12,0,0,0,.07.11l.2.08c.17,0,.33.11.48.17a1.55,1.55,0,0,1,.4.23,1.09,1.09,0,0,1,.27.33,1,1,0,0,1,.1.47A1,1,0,0,1,52.42,37.94Zm8.52,4.3a.75.75,0,0,1-.23.32,1,1,0,0,1-.37.18,1.77,1.77,0,0,1-.48,0h-.48v.63h.42v.72H57.89v-.72h.27v-2h-.27v-.72h2a1.75,1.75,0,0,1,.48.06.86.86,0,0,1,.37.18.7.7,0,0,1,.23.32,1.32,1.32,0,0,1,.08.47A1.34,1.34,0,0,1,60.94,42.24Zm3.16-.18h-1v-.61h-.53v.69H63v.5h-.38v.78h.53v-.69h1v1.41h-3v-.72h.26v-2H61.1v-.72h3Zm3.61,2.08H66.32v-1a.62.62,0,0,0,0-.21.27.27,0,0,0-.09-.12.34.34,0,0,0-.16-.06h-.23v.71h.29v.72H64.32v-.72h.26v-2h-.26v-.72h2.05a1.88,1.88,0,0,1,.49.06.86.86,0,0,1,.36.17.64.64,0,0,1,.23.3,1.08,1.08,0,0,1,.08.46,1,1,0,0,1-.11.5.64.64,0,0,1-.34.31v0a.46.46,0,0,1,.42.52v.33h.21Zm1.92-2.69h-.26v2h.26v.72H67.88v-.72h.26v-2h-.26v-.72h1.75ZM73,43.26a1.45,1.45,0,0,1-.33.54,1.4,1.4,0,0,1-.53.31,2.5,2.5,0,0,1-.69.09,2.4,2.4,0,0,1-.69-.09,1.33,1.33,0,0,1-.53-.31,1.35,1.35,0,0,1-.34-.54,2.86,2.86,0,0,1,0-1.64,1.35,1.35,0,0,1,.34-.54,1.22,1.22,0,0,1,.53-.31,2.39,2.39,0,0,1,.69-.1,2.5,2.5,0,0,1,.69.1,1.28,1.28,0,0,1,.53.31,1.45,1.45,0,0,1,.33.54,2.86,2.86,0,0,1,0,1.64Zm3.56,0a1.47,1.47,0,0,1-.34.53,1.28,1.28,0,0,1-.51.29,2.47,2.47,0,0,1-.63.08H73.22v-.72h.26v-2h-.26v-.72H75a2.08,2.08,0,0,1,.63.09,1.17,1.17,0,0,1,.51.29,1.52,1.52,0,0,1,.34.52,2.39,2.39,0,0,1,.12.81A2.29,2.29,0,0,1,76.52,43.24Zm14.21,6.24H77.87V34.87H90.73Zm6.52-13.22a.81.81,0,0,1-.23.31.76.76,0,0,1-.37.18,1.75,1.75,0,0,1-.48.06h-.48v.63h.42v.72H94.2v-.72h.26v-2H94.2v-.72h2a2.28,2.28,0,0,1,.48,0A1,1,0,0,1,97,35a.85.85,0,0,1,.23.32,1.48,1.48,0,0,1,0,1Zm.54,1.55a1.45,1.45,0,0,1-.33-.54,2.45,2.45,0,0,1-.12-.82,2.39,2.39,0,0,1,.12-.81,1.42,1.42,0,0,1,.33-.55,1.4,1.4,0,0,1,.53-.31,2.5,2.5,0,0,1,.69-.09,2.4,2.4,0,0,1,.69.09,1.3,1.3,0,0,1,.87.86,2.4,2.4,0,0,1,.11.81,2.47,2.47,0,0,1-.11.82,1.35,1.35,0,0,1-.34.54,1.22,1.22,0,0,1-.53.31,2.39,2.39,0,0,1-.69.1,2.5,2.5,0,0,1-.69-.1A1.28,1.28,0,0,1,97.79,37.81Zm3,5.71a1.88,1.88,0,1,1,1.88-1.88A1.88,1.88,0,0,1,100.78,43.52Zm2.55-5.58a1.79,1.79,0,0,1-1.08.28,4.79,4.79,0,0,1-.77-.07,3.48,3.48,0,0,1-.6-.17v-.87h1a.28.28,0,0,0,.05.2.29.29,0,0,0,.22.06.35.35,0,0,0,.2,0,.17.17,0,0,0,.07-.13.14.14,0,0,0-.06-.11.67.67,0,0,0-.2-.11l-.57-.23a2.12,2.12,0,0,1-.4-.25.82.82,0,0,1-.24-.32,1.15,1.15,0,0,1-.08-.44,1.23,1.23,0,0,1,.08-.44.73.73,0,0,1,.25-.33,1.23,1.23,0,0,1,.46-.21,2.88,2.88,0,0,1,.71-.07,3.38,3.38,0,0,1,.72.07,1.93,1.93,0,0,1,.56.21v.78h-.92a.21.21,0,0,0-.07-.17.35.35,0,0,0-.18,0,.35.35,0,0,0-.2,0,.13.13,0,0,0-.07.13.14.14,0,0,0,.07.11l.2.08c.17,0,.33.11.48.17a1.4,1.4,0,0,1,.4.23,1,1,0,0,1,.37.8A1,1,0,0,1,103.33,37.94Zm3,0a1.83,1.83,0,0,1-1.08.28,4.92,4.92,0,0,1-.78-.07,3.33,3.33,0,0,1-.59-.17v-.87h1a.34.34,0,0,0,.05.2.3.3,0,0,0,.22.06.37.37,0,0,0,.21,0,.16.16,0,0,0,0-.24.67.67,0,0,0-.2-.11l-.57-.23a1.84,1.84,0,0,1-.4-.25.82.82,0,0,1-.24-.32,1,1,0,0,1-.08-.44,1.23,1.23,0,0,1,.07-.44.9.9,0,0,1,.25-.33,1.31,1.31,0,0,1,.46-.21,2.94,2.94,0,0,1,.71-.07,3.26,3.26,0,0,1,.72.07,1.93,1.93,0,0,1,.56.21v.78h-.92a.18.18,0,0,0-.07-.17.31.31,0,0,0-.17,0,.37.37,0,0,0-.21,0,.14.14,0,0,0-.06.13.12.12,0,0,0,.07.11l.2.08c.17,0,.33.11.48.17a1.74,1.74,0,0,1,.4.23.92.92,0,0,1,.36.8A1,1,0,0,1,106.34,37.94Zm12.74,10.5a.83.83,0,0,1-.28.28,1.13,1.13,0,0,1-.39.15,2.45,2.45,0,0,1-.48,0h-2.05v-.72h.26v-2h-.26V45.5h2.05a1.5,1.5,0,0,1,.85.22.74.74,0,0,1,.31.65.68.68,0,0,1-.08.36.65.65,0,0,1-.19.24.61.61,0,0,1-.24.15.74.74,0,0,1-.21.07v0a1.39,1.39,0,0,1,.23.05.9.9,0,0,1,.27.11.85.85,0,0,1,.22.24.76.76,0,0,1,.09.4A.86.86,0,0,1,119.08,48.44Zm3.48-.41a1.45,1.45,0,0,1-.33.54,1.4,1.4,0,0,1-.53.31A2.5,2.5,0,0,1,121,49a2.4,2.4,0,0,1-.69-.09,1.33,1.33,0,0,1-.53-.31,1.35,1.35,0,0,1-.34-.54,2.86,2.86,0,0,1,0-1.64,1.35,1.35,0,0,1,.34-.54,1.22,1.22,0,0,1,.53-.31,2.39,2.39,0,0,1,.69-.1,2.5,2.5,0,0,1,.69.1,1.28,1.28,0,0,1,.53.31,1.45,1.45,0,0,1,.33.54,2.86,2.86,0,0,1,0,1.64Zm4.28-1.81h-.26v2.69h-1.23l-1.28-2v1.25h.26v.72h-1.54v-.72h.27v-2h-.27V45.5h1.63l1.15,1.77V46.22h-.26V45.5h1.53Zm3.49,0h-.26v1.47a1.51,1.51,0,0,1-.1.6.93.93,0,0,1-.28.39,1.09,1.09,0,0,1-.44.23,2.68,2.68,0,0,1-.59.06,2.74,2.74,0,0,1-.59-.06,1.07,1.07,0,0,1-.45-.23,1.05,1.05,0,0,1-.29-.39,1.51,1.51,0,0,1-.1-.6V46.22H127V45.5h1.66v.72h-.18v1.69a.34.34,0,0,0,.07.22.25.25,0,0,0,.19.06.27.27,0,0,0,.19-.06.34.34,0,0,0,.06-.22V46.22h-.17V45.5h1.54Zm2.61,2.48a1.83,1.83,0,0,1-1.08.27,4,4,0,0,1-.78-.07,2.71,2.71,0,0,1-.59-.16v-.87h1a.31.31,0,0,0,.05.19.26.26,0,0,0,.22.07.36.36,0,0,0,.21-.05.15.15,0,0,0,0-.23.67.67,0,0,0-.2-.11,5.46,5.46,0,0,1-.57-.24,1.51,1.51,0,0,1-.4-.24.82.82,0,0,1-.24-.32,1,1,0,0,1-.08-.44,1.23,1.23,0,0,1,.07-.44.9.9,0,0,1,.25-.33,1,1,0,0,1,.46-.21,2.9,2.9,0,0,1,.71-.08,3.24,3.24,0,0,1,.72.08,2.13,2.13,0,0,1,.56.2v.79h-.92c0-.09,0-.15-.07-.18a.31.31,0,0,0-.17,0,.37.37,0,0,0-.21,0,.12.12,0,0,0-.06.12.11.11,0,0,0,.07.11.81.81,0,0,0,.2.08l.48.18a1.74,1.74,0,0,1,.4.23,1.18,1.18,0,0,1,.27.32,1.14,1.14,0,0,1,.09.48A1,1,0,0,1,132.94,48.7Zm4,.21A1.88,1.88,0,1,1,138.84,47,1.88,1.88,0,0,1,137,48.91Zm-3.45-40h4.65v1.51H137.1V9.94h-.4v2.78h.43v1h-2.6v-1H135V9.94h-.4v.49h-1.06Zm-4.11.79a1.13,1.13,0,0,1,.36-.48,1.7,1.7,0,0,1,.65-.29,4.06,4.06,0,0,1,1-.1,4.68,4.68,0,0,1,1,.1,3.36,3.36,0,0,1,.8.29v1.11h-1.3a.27.27,0,0,0-.1-.24.41.41,0,0,0-.25-.07.69.69,0,0,0-.29.05.21.21,0,0,0-.09.19.15.15,0,0,0,.1.15l.28.11c.24.08.47.16.68.25a2.34,2.34,0,0,1,.56.32,1.37,1.37,0,0,1,.52,1.13,1.39,1.39,0,0,1-.52,1.2,2.48,2.48,0,0,1-1.52.4,6.52,6.52,0,0,1-1.1-.1,4.37,4.37,0,0,1-.84-.24V12.27h1.36a.41.41,0,0,0,.08.27.39.39,0,0,0,.31.09.55.55,0,0,0,.29-.06.21.21,0,0,0,.09-.19.21.21,0,0,0-.08-.15,1.08,1.08,0,0,0-.28-.15l-.81-.33a2.69,2.69,0,0,1-.56-.35,1.12,1.12,0,0,1-.34-.45,1.46,1.46,0,0,1-.11-.62A1.72,1.72,0,0,1,129.4,9.71Zm-4.63,3h.37V9.94h-.37v-1H129v1.87h-1.39V9.94h-.74v1h.54v.7h-.54v1.1h.74v-1H129v2h-4.24Zm-5-3.8h2.36v1h-.25v2.39a.41.41,0,0,0,.09.3.45.45,0,0,0,.54,0,.41.41,0,0,0,.09-.3V9.94h-.25v-1h2.18v1h-.37V12a2.13,2.13,0,0,1-.14.85,1.34,1.34,0,0,1-.4.56,1.58,1.58,0,0,1-.62.31,3.47,3.47,0,0,1-.82.1,3.58,3.58,0,0,1-.84-.1,1.59,1.59,0,0,1-.64-.31,1.46,1.46,0,0,1-.41-.56,2.13,2.13,0,0,1-.14-.85V9.94h-.38Zm-4.74,1.26a1.9,1.9,0,0,1,.47-.77,1.86,1.86,0,0,1,.76-.44,3.39,3.39,0,0,1,1-.13c.26,0,.48,0,.69,0s.39.06.55.1a3.17,3.17,0,0,1,.43.13,2.73,2.73,0,0,1,.33.14v1.48h-1.54v-.29a.54.54,0,0,0-.11-.38.45.45,0,0,0-.35-.11.44.44,0,0,0-.34.11.54.54,0,0,0-.11.38v1.8a.54.54,0,0,0,.11.38.44.44,0,0,0,.34.11.45.45,0,0,0,.35-.11.54.54,0,0,0,.11-.38v0h-.34v-.92h2.19v.92h-.31v1.24l-.33.14a3.17,3.17,0,0,1-.43.13l-.55.09a6.71,6.71,0,0,1-.67,0,3.52,3.52,0,0,1-1-.14,1.77,1.77,0,0,1-1.23-1.2,3.34,3.34,0,0,1-.17-1.16A3.28,3.28,0,0,1,115.08,10.18Zm-3,9.15h29.33V38.85H112.05ZM39.47,6.26h67.88V29.64H39.47Zm-13,6.46h.37V9.94H26.5v-1h4.24v1.87H29.35V9.94H28.6v1h.55v.7H28.6v1.1h.75v-1h1.39v2H26.5Zm-7.46,0h.37V9.94H19v-1h3l.7,2.13.68-2.13h2.86v1h-.38v2.78h.38v1H23.76v-1h.37V10.28L22.9,13.74h-.67l-1.4-3.47v2.45h.37v1H19ZM14.3,10.18A1.82,1.82,0,0,1,15.52,9a3.32,3.32,0,0,1,1-.13,3.37,3.37,0,0,1,1,.13,1.78,1.78,0,0,1,.74.44,1.91,1.91,0,0,1,.48.77,3.55,3.55,0,0,1,.16,1.15,3.61,3.61,0,0,1-.16,1.16,2.06,2.06,0,0,1-.48.77,1.88,1.88,0,0,1-.74.43,3.36,3.36,0,0,1-1,.14,3.31,3.31,0,0,1-1-.14,2,2,0,0,1-.75-.43,2,2,0,0,1-.47-.77,3.59,3.59,0,0,1-.17-1.16A3.53,3.53,0,0,1,14.3,10.18ZM8.85,12.72h.37V9.94H8.85v-1h2.42v1H11v.94h.93V9.94h-.32v-1H14v1h-.37v2.78H14v1H11.56v-1h.32v-1H11v1h.32v1H8.85ZM5.44,19.33H34.78V38.85H5.44Z"/><path class="cls-1" d="M121.29,60.18a.29.29,0,0,0,.22-.08.33.33,0,0,0,.08-.24V58.53a.37.37,0,0,0-.08-.25.38.38,0,0,0-.44,0,.37.37,0,0,0-.08.25v1.33a.33.33,0,0,0,.08.24A.29.29,0,0,0,121.29,60.18Z"/><path class="cls-1" d="M81.27,58.86a.29.29,0,0,0,.06-.21v-.16a.34.34,0,0,0-.06-.22.3.3,0,0,0-.2-.06h-.23v.72h.23A.3.3,0,0,0,81.27,58.86Z"/><path class="cls-1" d="M14.08,47.44h-.27v.75h.27a.27.27,0,0,0,.19-.06.34.34,0,0,0,.06-.22v-.19a.29.29,0,0,0-.06-.21A.24.24,0,0,0,14.08,47.44Z"/><path class="cls-1" d="M45.32,37.36a.34.34,0,0,0,.07-.25V35.79a.36.36,0,0,0-.07-.25.31.31,0,0,0-.22-.07.32.32,0,0,0-.23.07.36.36,0,0,0-.07.25v1.32a.34.34,0,0,0,.07.25.32.32,0,0,0,.23.08A.31.31,0,0,0,45.32,37.36Z"/><path class="cls-1" d="M41.92,35.47h-.15v.71h.15a.25.25,0,0,0,.19-.06.29.29,0,0,0,.07-.22v-.15a.29.29,0,0,0-.07-.22A.25.25,0,0,0,41.92,35.47Z"/><path class="cls-1" d="M59.53,41.45h-.15v.72h.15a.27.27,0,0,0,.19-.06.34.34,0,0,0,.07-.22v-.16a.29.29,0,0,0-.07-.21A.22.22,0,0,0,59.53,41.45Z"/><path class="cls-1" d="M66.05,41.45h-.24v.72h.24a.29.29,0,0,0,.19-.06.34.34,0,0,0,.06-.22v-.16a.29.29,0,0,0-.06-.21A.25.25,0,0,0,66.05,41.45Z"/><path class="cls-1" d="M89.35,36.26H79.25V48.1h10.1ZM81.5,47.06a.58.58,0,1,1,.58-.58A.58.58,0,0,1,81.5,47.06Zm0-1.38a.58.58,0,1,1,.58-.58A.58.58,0,0,1,81.5,45.68Zm0-1.38a.59.59,0,1,1,.58-.58A.58.58,0,0,1,81.5,44.3Zm0-1.38a.59.59,0,0,1-.58-.59.58.58,0,1,1,1.16,0A.59.59,0,0,1,81.5,42.92Zm0-4.15a.59.59,0,1,1,.58-.58A.58.58,0,0,1,81.5,38.77Zm1.38,8.29a.58.58,0,1,1,.58-.58A.58.58,0,0,1,82.88,47.06Zm0-4.14a.59.59,0,0,1-.58-.59.58.58,0,1,1,1.16,0A.59.59,0,0,1,82.88,42.92Zm0-4.15a.59.59,0,1,1,.58-.58A.58.58,0,0,1,82.88,38.77Zm1.38,8.29a.58.58,0,1,1,0-1.16.58.58,0,1,1,0,1.16Zm0-4.14a.59.59,0,0,1-.58-.59.58.58,0,0,1,.58-.58.59.59,0,0,1,.59.58A.6.6,0,0,1,84.26,42.92Zm0-4.15a.59.59,0,0,1,0-1.17.59.59,0,1,1,0,1.17Zm1.39,8.29a.58.58,0,1,1,.58-.58A.58.58,0,0,1,85.65,47.06Zm0-4.14a.59.59,0,0,1-.59-.59.59.59,0,0,1,1.17,0A.59.59,0,0,1,85.65,42.92Zm0-4.15a.59.59,0,1,1,.58-.58A.58.58,0,0,1,85.65,38.77ZM87,47.06a.58.58,0,1,1,.58-.58A.58.58,0,0,1,87,47.06Zm0-4.14a.59.59,0,0,1-.58-.59.58.58,0,1,1,1.16,0A.59.59,0,0,1,87,42.92Zm0-1.39a.58.58,0,1,1,.58-.58A.58.58,0,0,1,87,41.53Zm0-1.38a.58.58,0,1,1,.58-.58A.58.58,0,0,1,87,40.15Zm0-1.38a.59.59,0,1,1,.58-.58A.58.58,0,0,1,87,38.77Z"/><path class="cls-1" d="M75,41.45h-.25v2H75a.32.32,0,0,0,.23-.07.36.36,0,0,0,.07-.25V41.78a.3.3,0,0,0-.08-.25A.29.29,0,0,0,75,41.45Z"/><path class="cls-1" d="M71.41,41.45a.32.32,0,0,0-.23.08.34.34,0,0,0-.07.25V43.1a.36.36,0,0,0,.07.25.32.32,0,0,0,.23.07.29.29,0,0,0,.22-.07.36.36,0,0,0,.08-.25V41.78a.34.34,0,0,0-.08-.25A.29.29,0,0,0,71.41,41.45Z"/><path class="cls-1" d="M17.45,46.22a.29.29,0,0,0-.22.08.34.34,0,0,0-.08.25v1.32a.36.36,0,0,0,.08.25.29.29,0,0,0,.22.07.32.32,0,0,0,.23-.07.41.41,0,0,0,.07-.25V46.55a.39.39,0,0,0-.07-.25A.32.32,0,0,0,17.45,46.22Z"/><path class="cls-1" d="M121,46.22a.32.32,0,0,0-.23.08.34.34,0,0,0-.07.25v1.32a.36.36,0,0,0,.07.25.32.32,0,0,0,.23.07.29.29,0,0,0,.22-.07.36.36,0,0,0,.08-.25V46.55a.34.34,0,0,0-.08-.25A.29.29,0,0,0,121,46.22Z"/><polygon class="cls-1" points="71.56 58.49 71.38 59.37 71.78 59.37 71.6 58.49 71.56 58.49"/><path class="cls-1" d="M117.63,47.44h-.26v.75h.26a.25.25,0,0,0,.19-.06.29.29,0,0,0,.07-.22v-.19a.25.25,0,0,0-.07-.21A.22.22,0,0,0,117.63,47.44Z"/><path class="cls-1" d="M99.23,37.36a.34.34,0,0,0,.08-.25V35.79a.36.36,0,0,0-.08-.25.28.28,0,0,0-.22-.07.29.29,0,0,0-.22.07.36.36,0,0,0-.08.25v1.32a.34.34,0,0,0,.08.25.29.29,0,0,0,.22.08A.28.28,0,0,0,99.23,37.36Z"/><path class="cls-1" d="M95.84,35.47h-.15v.71h.15a.29.29,0,0,0,.19-.06.34.34,0,0,0,.06-.22v-.15a.34.34,0,0,0-.06-.22A.27.27,0,0,0,95.84,35.47Z"/><path class="cls-1" d="M117.79,46.88a.29.29,0,0,0,.07-.22V46.5a.25.25,0,0,0-.07-.21.22.22,0,0,0-.19-.07h-.23v.72h.23A.25.25,0,0,0,117.79,46.88Z"/><path class="cls-1" d="M62.48,64.22H52V77.14H62.48Zm-8.34,7.13a.66.66,0,0,1,0-1.32.66.66,0,0,1,0,1.32Zm0-1.56a.66.66,0,1,1,.66-.66A.66.66,0,0,1,54.14,69.79Zm0-1.57a.66.66,0,0,1,0-1.32.66.66,0,0,1,0,1.32Zm0-1.57A.66.66,0,1,1,54.8,66,.65.65,0,0,1,54.14,66.65Zm1.57,4.7a.66.66,0,1,1,.66-.66A.66.66,0,0,1,55.71,71.35Zm1.57,0a.66.66,0,1,1,0-1.32.66.66,0,0,1,0,1.32Zm1.56,0a.66.66,0,1,1,.66-.66A.66.66,0,0,1,58.84,71.35Zm1.57,4.7a.66.66,0,1,1,.66-.66A.66.66,0,0,1,60.41,76.05Zm0-1.57a.66.66,0,0,1,0-1.32.66.66,0,1,1,0,1.32Zm0-1.56a.66.66,0,1,1,.66-.66A.66.66,0,0,1,60.41,72.92Zm0-1.57a.66.66,0,0,1,0-1.32.66.66,0,1,1,0,1.32Zm0-1.56a.66.66,0,1,1,.66-.66A.66.66,0,0,1,60.41,69.79Zm0-1.57a.66.66,0,0,1,0-1.32.66.66,0,0,1,0,1.32Zm0-1.57a.66.66,0,1,1,0-1.31.66.66,0,1,1,0,1.31Z"/><path class="cls-1" d="M142.91,0H3.91A3.91,3.91,0,0,0,0,3.91v77a3.91,3.91,0,0,0,3.91,3.92h139a3.91,3.91,0,0,0,3.91-3.92V3.91A3.91,3.91,0,0,0,142.91,0Zm1.83,80.54a2.32,2.32,0,0,1-2.31,2.31H4.4a2.31,2.31,0,0,1-2.31-2.31V4.24A2.3,2.3,0,0,1,4.4,1.93h138a2.31,2.31,0,0,1,2.31,2.31Z"/><path class="cls-1" d="M3.73,55.14v25.4a.66.66,0,0,0,.67.66h138a.66.66,0,0,0,.66-.66V55.14ZM129.53,58a.81.81,0,0,1,.25-.33,1.31,1.31,0,0,1,.46-.21,2.88,2.88,0,0,1,.71-.07,2.84,2.84,0,0,1,.72.08,1.93,1.93,0,0,1,.56.2v.78h-.92a.18.18,0,0,0-.07-.17.31.31,0,0,0-.17,0,.48.48,0,0,0-.21,0,.15.15,0,0,0-.06.13.11.11,0,0,0,.07.11l.2.08c.17,0,.33.11.48.17a2.2,2.2,0,0,1,.4.23.93.93,0,0,1,.26.33,1,1,0,0,1,.1.47,1,1,0,0,1-.36.85,1.76,1.76,0,0,1-1.08.28,4,4,0,0,1-.78-.07,2.66,2.66,0,0,1-.59-.17v-.86h1a.33.33,0,0,0,0,.19.3.3,0,0,0,.22.06.37.37,0,0,0,.21,0,.15.15,0,0,0,.06-.13.16.16,0,0,0-.05-.11l-.21-.11-.56-.23a2.22,2.22,0,0,1-.41-.25.82.82,0,0,1-.23-.32,1,1,0,0,1-.08-.44A1.23,1.23,0,0,1,129.53,58Zm-3,2.14h.27v-2h-.27v-.72h1.9v.72H128v2h.4v-.4h.87V60.9h-2.76ZM123,57.49h1.67v.72h-.18V59.9a.29.29,0,0,0,.07.21.22.22,0,0,0,.19.07.24.24,0,0,0,.19-.07.29.29,0,0,0,.06-.21V58.21h-.17v-.72h1.54v.72h-.26v1.47a1.49,1.49,0,0,1-.1.59.91.91,0,0,1-.28.4,1.06,1.06,0,0,1-.45.22,2,2,0,0,1-.58.07,2.22,2.22,0,0,1-.59-.07,1.06,1.06,0,0,1-.45-.22,1,1,0,0,1-.29-.4,1.49,1.49,0,0,1-.1-.59V58.21H123Zm-6,2.69h.26v-2h-.26v-.72h2.66v1l0-.07a1.31,1.31,0,0,1,.33-.55,1.4,1.4,0,0,1,.53-.31,2.5,2.5,0,0,1,.69-.09,2.45,2.45,0,0,1,.69.09,1.3,1.3,0,0,1,.87.86,3.07,3.07,0,0,1,0,1.63,1.39,1.39,0,0,1-.34.55,1.21,1.21,0,0,1-.53.3,2.13,2.13,0,0,1-.69.1,2.17,2.17,0,0,1-.69-.1,1.26,1.26,0,0,1-.53-.3,1.37,1.37,0,0,1-.33-.55,2.41,2.41,0,0,1-.12-.82,3.27,3.27,0,0,1,0-.57h-.73v-.41h-.4v.73h.66v.49h-.66v.75h.57v.72h-2.06Zm-37.7,0h.26v-2h-.26v-.72H81.4a2.46,2.46,0,0,1,.49,0,1,1,0,0,1,.36.17.72.72,0,0,1,.23.31,1,1,0,0,1,.08.46,1,1,0,0,1-.11.5.66.66,0,0,1-.34.3v0a.45.45,0,0,1,.42.51v.34h.21v.72H81.35v-1a.58.58,0,0,0,0-.21.25.25,0,0,0-.09-.13l-.16-.05-.23,0v.72h.29v.72H79.35ZM27.13,58a.73.73,0,0,1,.25-.33,1.31,1.31,0,0,1,.46-.21,2.88,2.88,0,0,1,.71-.07,2.84,2.84,0,0,1,.72.08,1.93,1.93,0,0,1,.56.2v.78h-.92a.21.21,0,0,0-.07-.17.34.34,0,0,0-.17,0,.48.48,0,0,0-.21,0,.16.16,0,0,0-.07.13.12.12,0,0,0,.07.11l.21.08c.17,0,.32.11.48.17a1.82,1.82,0,0,1,.39.23.86.86,0,0,1,.27.33,1.16,1.16,0,0,1-.27,1.32,1.72,1.72,0,0,1-1.08.28,3.94,3.94,0,0,1-.77-.07,2.76,2.76,0,0,1-.6-.17v-.86h1a.27.27,0,0,0,.05.19.29.29,0,0,0,.22.06.35.35,0,0,0,.2,0,.14.14,0,0,0,.07-.13.16.16,0,0,0-.05-.11l-.21-.11-.57-.23a2.12,2.12,0,0,1-.4-.25.85.85,0,0,1-.24-.32,1.12,1.12,0,0,1-.08-.44A1.23,1.23,0,0,1,27.13,58Zm-3,2.14h.26v-2h-.26v-.72H26v.72h-.4v2H26v-.4h.87V60.9H24.13Zm-3.5-2.69H22.3v.72h-.18V59.9a.29.29,0,0,0,.06.21.25.25,0,0,0,.19.07.26.26,0,0,0,.2-.07.29.29,0,0,0,.06-.21V58.21h-.18v-.72H24v.72h-.26v1.47a1.69,1.69,0,0,1-.1.59,1,1,0,0,1-.28.4,1.12,1.12,0,0,1-.45.22,2.1,2.1,0,0,1-.58.07,2.12,2.12,0,0,1-.59-.07,1.06,1.06,0,0,1-.45-.22.92.92,0,0,1-.29-.4,1.48,1.48,0,0,1-.11-.59V58.21h-.26Zm-6,2.69h.26v-2h-.26v-.72h2.66v1s0-.05,0-.07a1.3,1.3,0,0,1,.87-.86,2.4,2.4,0,0,1,.69-.09,2.5,2.5,0,0,1,.69.09,1.4,1.4,0,0,1,.53.31,1.42,1.42,0,0,1,.33.55,2.83,2.83,0,0,1,0,1.63,1.5,1.5,0,0,1-.33.55,1.26,1.26,0,0,1-.53.3,2.17,2.17,0,0,1-.69.1,2.09,2.09,0,0,1-.69-.1,1.21,1.21,0,0,1-.53-.3,1.39,1.39,0,0,1-.34-.55,2.41,2.41,0,0,1-.12-.82,2.49,2.49,0,0,1,.06-.57h-.73v-.41h-.4v.73h.66v.49h-.66v.75h.57v.72H14.65ZM32.18,78.52H12.43V62.83H32.18Zm31.68,0H50.59V62.83H63.86Zm3-19.52a.82.82,0,0,1-.23.32.86.86,0,0,1-.36.17,1.88,1.88,0,0,1-.49.06h-.47v.63h.42v.72H63.87v-.72h.26v-2h-.26v-.72h2a2.46,2.46,0,0,1,.49,0,1,1,0,0,1,.36.18.75.75,0,0,1,.23.32,1.48,1.48,0,0,1,0,1Zm2.92,1.9H67.07v-.72h.27v-2h-.27v-.72H69v.72h-.41v2H69v-.4h.87Zm3.57,0H71.69v-.72H72l-.07-.35h-.6l-.07.35h.27v.72H70v-.72h.17l.74-2.69h1.6l.74,2.69h.17ZM76,58.21h-.16L75,59.72v.46h.26v.72H73.53v-.72h.26v-.46l-.87-1.51h-.16v-.72h1.68v.72h-.16l.26.76h0l.26-.76h-.16v-.72H76Zm.11,2h.26v-2h-.26v-.72h3v1.32h-1v-.6h-.53v.69H78v.5h-.38v.78h.53v-.69h1V60.9h-3ZM98.45,78.52h-22V62.83h22Zm35.94,0H114.65V62.83h19.74Z"/><path class="cls-1" d="M133,64.22H116V77.14h17Zm-8.24,11.83a.66.66,0,1,1,.66-.66A.66.66,0,0,1,124.77,76.05Zm0-4.7a.66.66,0,0,1,0-1.32.66.66,0,0,1,0,1.32Zm0-4.7a.66.66,0,1,1,.66-.65A.65.65,0,0,1,124.77,66.65Zm1.57,9.4a.66.66,0,1,1,.66-.66A.67.67,0,0,1,126.34,76.05Zm0-4.7a.66.66,0,1,1,.66-.66A.66.66,0,0,1,126.34,71.35Zm0-4.7A.66.66,0,1,1,127,66,.66.66,0,0,1,126.34,66.65Zm1.57,9.4a.66.66,0,1,1,.66-.66A.66.66,0,0,1,127.91,76.05Zm0-4.7a.66.66,0,0,1,0-1.32.66.66,0,1,1,0,1.32Zm0-4.7a.66.66,0,1,1,0-1.31.66.66,0,1,1,0,1.31Zm1.56,9.4a.66.66,0,1,1,.66-.66A.67.67,0,0,1,129.47,76.05Zm0-4.7a.66.66,0,1,1,.66-.66A.66.66,0,0,1,129.47,71.35Zm0-4.7a.66.66,0,1,1,.66-.65A.66.66,0,0,1,129.47,66.65Zm1.57,9.4a.66.66,0,1,1,.66-.66A.66.66,0,0,1,131,76.05Zm0-1.57a.66.66,0,0,1,0-1.32.66.66,0,0,1,0,1.32Zm0-1.56a.66.66,0,1,1,.66-.66A.66.66,0,0,1,131,72.92Zm0-1.57A.66.66,0,1,1,131,70a.66.66,0,1,1,0,1.32Zm0-1.56a.66.66,0,1,1,.66-.66A.66.66,0,0,1,131,69.79Zm0-1.57a.66.66,0,1,1,0-1.32.66.66,0,1,1,0,1.32Zm0-1.57a.66.66,0,1,1,0-1.31.66.66,0,1,1,0,1.31Z"/><path class="cls-1" d="M97.07,64.22H77.83V77.14H97.07ZM85.77,76.05a.66.66,0,1,1,.66-.66A.66.66,0,0,1,85.77,76.05Zm0-1.57a.66.66,0,0,1,0-1.32.66.66,0,0,1,0,1.32Zm0-1.56a.66.66,0,1,1,.66-.66A.66.66,0,0,1,85.77,72.92Zm0-1.57a.66.66,0,1,1,0-1.32.66.66,0,0,1,0,1.32Zm0-1.56a.66.66,0,1,1,.66-.66A.66.66,0,0,1,85.77,69.79Zm0-1.57a.66.66,0,1,1,0-1.32.66.66,0,0,1,0,1.32Zm0-1.57a.66.66,0,1,1,0-1.31.66.66,0,1,1,0,1.31Zm3.13,9.4a.66.66,0,1,1,.66-.66A.67.67,0,0,1,88.9,76.05Zm0-1.57a.66.66,0,1,1,.66-.66A.66.66,0,0,1,88.9,74.48Zm0-1.56a.66.66,0,1,1,.66-.66A.67.67,0,0,1,88.9,72.92Zm0-1.57a.66.66,0,1,1,.66-.66A.66.66,0,0,1,88.9,71.35Zm0-1.56a.66.66,0,1,1,.66-.66A.67.67,0,0,1,88.9,69.79Zm0-1.57a.66.66,0,1,1,.66-.66A.66.66,0,0,1,88.9,68.22Zm0-1.57a.66.66,0,1,1,.66-.65A.66.66,0,0,1,88.9,66.65Zm1.57,9.4a.66.66,0,1,1,.66-.66A.66.66,0,0,1,90.47,76.05Zm0-4.7a.66.66,0,0,1,0-1.32.66.66,0,0,1,0,1.32Zm0-4.7a.66.66,0,1,1,0-1.31.66.66,0,1,1,0,1.31ZM92,76.05a.66.66,0,1,1,.66-.66A.67.67,0,0,1,92,76.05Zm0-4.7a.66.66,0,1,1,.66-.66A.66.66,0,0,1,92,71.35Zm0-4.7a.66.66,0,1,1,.66-.65A.66.66,0,0,1,92,66.65Zm1.57,9.4a.66.66,0,1,1,.66-.66A.66.66,0,0,1,93.6,76.05Zm0-4.7a.66.66,0,0,1,0-1.32.66.66,0,0,1,0,1.32Zm0-4.7a.66.66,0,1,1,0-1.31.66.66,0,1,1,0,1.31Zm1.56,9.4a.66.66,0,1,1,.66-.66A.67.67,0,0,1,95.16,76.05Zm0-1.57a.66.66,0,1,1,.66-.66A.66.66,0,0,1,95.16,74.48Zm0-1.56a.66.66,0,1,1,0-1.32.66.66,0,1,1,0,1.32Zm0-1.57a.66.66,0,1,1,.66-.66A.66.66,0,0,1,95.16,71.35Zm0-4.7a.66.66,0,1,1,.66-.65A.66.66,0,0,1,95.16,66.65Z"/><path class="cls-1" d="M100.78,40.32a1.32,1.32,0,1,0,1.31,1.32A1.32,1.32,0,0,0,100.78,40.32Z"/><path class="cls-1" d="M8.7,45.65A1.38,1.38,0,1,0,10.08,47,1.38,1.38,0,0,0,8.7,45.65Z"/></g></g></svg>